# xmcd CD database file
#
# Track frame offsets:
#	150
#	9957
#	22234
#	31777
#	40984
#	55807
#	64820
#	73387
#	79405
#	88871
#	96582
#	105135
#	118676
#	124353
#	130935
#	146552
#	160198
#	165659
#	184536
#	197492
#	212851
#	223076
#	233838
#
# Disc length: 3335 seconds
#
# Revision: 0
# Processed by: cddbd v1.5.1PL0 Copyright (c) Steve Scherf et al.
# Submitted via: CDex 1.51
#
DISCID=4f0d0517
DTITLE=Suede Saddle - Letters from the Trail
DYEAR=2004
DGENRE=Country
TTITLE0=San Antonio Rose
TTITLE1=Letter from the Trail Boss
TTITLE2=Ride Cowboy Ride
TTITLE3=Letter from Seamus
TTITLE4=Blue Prarie
TTITLE5=Rawhide Fiber Suppliment
TTITLE6=Rawhide
TTITLE7=Letter from Ghandi
TTITLE8=Letter from Micheline
TTITLE9=Back in the Saddle
TTITLE10=Lily of the Valley
TTITLE11=My Oklahoma
TTITLE12=Letter from Cindy
TTITLE13=Letter from Hambone
TTITLE14=Ghost Riders
TTITLE15=Pecos Bill
TTITLE16=Letter from Steve
TTITLE17=Gary's Guide...
TTITLE18=Tumbleweeds
TTITLE19=Letter from Slick
TTITLE20=How Does He Yodel?
TTITLE21=Final Letter from the Trail Boss
TTITLE22=Ridin' Down the Canyon
EXTD=YEAR: 2004
EXTT0=
EXTT1=
EXTT2=
EXTT3=
EXTT4=
EXTT5=
EXTT6=
EXTT7=
EXTT8=
EXTT9=
EXTT10=
EXTT11=
EXTT12=
EXTT13=
EXTT14=
EXTT15=
EXTT16=
EXTT17=
EXTT18=
EXTT19=
EXTT20=
EXTT21=
EXTT22=
PLAYORDER=
